<svg xmlns="http://www.w3.org/2000/svg" xmlns:xlink="http://www.w3.org/1999/xlink" id="&#x5716;&#x5C64;_1" x="0px" y="0px" viewBox="0 0 1039.47 723" style="enable-background:new 0 0 1039.47 723;" xml:space="preserve"><style type="text/css">	.st0{fill:none;stroke:#005C7A;stroke-width:3;stroke-miterlimit:10;}	.st1{fill:#005C7A;}	.st2{fill:#FFFFFF;}</style><g>	<path class="st0" d="M858.73,507.14H170.47c-88.14,0-159.59-71.45-159.59-159.59v0c0-88.14,71.45-159.59,159.59-159.59h688.26  c88.14,0,159.59,71.45,159.59,159.59v0C1018.32,435.69,946.87,507.14,858.73,507.14z"></path>	<g>		<circle class="st1" cx="207.4" cy="187.97" r="51.95"></circle>		<circle class="st1" cx="514.6" cy="187.97" r="51.95"></circle>		<circle class="st1" cx="821.8" cy="187.97" r="51.95"></circle>	</g>	<g>		<circle class="st1" cx="207.4" cy="507.14" r="51.95"></circle>		<circle class="st1" cx="514.6" cy="507.14" r="51.95"></circle>		<circle class="st1" cx="821.8" cy="507.14" r="51.95"></circle>	</g>	<g>		<path class="st2" d="M207.19,175.49l-6.05,1.68l-1.25-4.8l9.02-2.88h4.13v33.84h-5.86V175.49z"></path>	</g>	<g>		<path class="st1" d="M115.1,90.45h3.98l4.42,7.1l4.42-7.1h3.98v16.8h-3.67V96.28l-4.73,7.18h-0.1l-4.68-7.1v10.9h-3.62V90.45z"></path>		<path class="st1" d="M134.92,100.89v-0.05c0-3.67,2.62-6.7,6.36-6.7c4.3,0,6.26,3.34,6.26,6.98c0,0.29-0.02,0.62-0.05,0.96h-8.95   c0.36,1.66,1.51,2.52,3.14,2.52c1.22,0,2.11-0.38,3.12-1.32l2.09,1.85c-1.2,1.49-2.93,2.4-5.26,2.4   C137.78,107.54,134.92,104.83,134.92,100.89z M143.99,99.81c-0.22-1.63-1.18-2.74-2.71-2.74c-1.51,0-2.5,1.08-2.78,2.74H143.99z"></path>		<path class="st1" d="M149.63,100.89v-0.05c0-3.67,2.62-6.7,6.36-6.7c4.3,0,6.26,3.34,6.26,6.98c0,0.29-0.02,0.62-0.05,0.96h-8.95   c0.36,1.66,1.51,2.52,3.14,2.52c1.22,0,2.11-0.38,3.12-1.32l2.09,1.85c-1.2,1.49-2.93,2.4-5.26,2.4   C152.49,107.54,149.63,104.83,149.63,100.89z M158.7,99.81c-0.22-1.63-1.18-2.74-2.71-2.74c-1.51,0-2.5,1.08-2.78,2.74H158.7z"></path>		<path class="st1" d="M165.57,103.6v-6.1h-1.54v-3.12h1.54V91.1h3.65v3.29h3.02v3.12h-3.02v5.5c0,0.84,0.36,1.25,1.18,1.25   c0.67,0,1.27-0.17,1.8-0.46v2.93c-0.77,0.46-1.66,0.74-2.88,0.74C167.08,107.47,165.57,106.58,165.57,103.6z"></path>		<path class="st1" d="M191.87,105.62c-1.37,1.13-2.98,1.87-4.92,1.87c-3.22,0-5.64-1.87-5.64-4.85v-0.05   c0-2.14,1.15-3.65,3.26-4.61c-0.82-1.15-1.18-2.21-1.18-3.36v-0.05c0-2.3,1.85-4.42,5.09-4.42c2.86,0,4.73,1.87,4.73,4.22v0.05   c0,2.26-1.44,3.58-3.53,4.39l2.23,2.23c0.55-0.86,1.1-1.85,1.63-2.88l2.71,1.49c-0.65,1.18-1.37,2.42-2.21,3.55l2.47,2.47   l-2.71,1.9L191.87,105.62z M189.81,103.51l-3.22-3.26c-1.1,0.58-1.56,1.39-1.56,2.21v0.05c0,1.18,0.98,1.97,2.35,1.97   C188.22,104.47,189.04,104.11,189.81,103.51z M190,94.65V94.6c0-0.96-0.65-1.56-1.58-1.56c-0.98,0-1.63,0.7-1.63,1.7v0.05   c0,0.74,0.29,1.3,0.98,2.09C189.23,96.33,190,95.71,190,94.65z"></path>		<path class="st1" d="M206.42,90.45h6.86c4.01,0,6.43,2.38,6.43,5.81v0.05c0,3.89-3.02,5.9-6.79,5.9h-2.81v5.04h-3.7V90.45z    M213.04,98.92c1.85,0,2.93-1.1,2.93-2.54v-0.05c0-1.66-1.15-2.54-3-2.54h-2.86v5.14H213.04z"></path>		<path class="st1" d="M222.23,89.73h3.65v17.52h-3.65V89.73z"></path>		<path class="st1" d="M228.54,103.55v-0.05c0-2.81,2.14-4.1,5.18-4.1c1.3,0,2.23,0.22,3.14,0.53v-0.22c0-1.51-0.94-2.35-2.76-2.35   c-1.39,0-2.38,0.26-3.55,0.7l-0.91-2.78c1.42-0.62,2.81-1.03,4.99-1.03c1.99,0,3.43,0.53,4.34,1.44c0.96,0.96,1.39,2.38,1.39,4.1   v7.46h-3.53v-1.39c-0.89,0.98-2.11,1.63-3.89,1.63C230.54,107.49,228.54,106.1,228.54,103.55z M236.92,102.71v-0.65   c-0.62-0.29-1.44-0.48-2.33-0.48c-1.56,0-2.52,0.62-2.52,1.78v0.05c0,0.98,0.82,1.56,1.99,1.56   C235.77,104.97,236.92,104.03,236.92,102.71z"></path>		<path class="st1" d="M243.52,94.39h3.65v1.82c0.84-1.08,1.92-2.06,3.77-2.06c2.76,0,4.37,1.82,4.37,4.78v8.33h-3.65v-7.18   c0-1.73-0.82-2.62-2.21-2.62s-2.28,0.89-2.28,2.62v7.18h-3.65V94.39z"></path>		<path class="st1" d="M258.47,94.39h3.65v1.82c0.84-1.08,1.92-2.06,3.77-2.06c2.76,0,4.37,1.82,4.37,4.78v8.33h-3.65v-7.18   c0-1.73-0.82-2.62-2.21-2.62s-2.28,0.89-2.28,2.62v7.18h-3.65V94.39z"></path>		<path class="st1" d="M273.49,89.73h3.84v3.24h-3.84V89.73z M273.59,94.39h3.65v12.87h-3.65V94.39z"></path>		<path class="st1" d="M280.67,94.39h3.65v1.82c0.84-1.08,1.92-2.06,3.77-2.06c2.76,0,4.37,1.82,4.37,4.78v8.33h-3.65v-7.18   c0-1.73-0.82-2.62-2.21-2.62s-2.28,0.89-2.28,2.62v7.18h-3.65V94.39z"></path>		<path class="st1" d="M295.69,109.8l1.25-2.74c1.32,0.74,2.64,1.18,4.34,1.18c2.5,0,3.67-1.2,3.67-3.5v-0.62   c-1.08,1.3-2.26,2.09-4.2,2.09c-3,0-5.71-2.18-5.71-6v-0.05c0-3.84,2.76-6,5.71-6c1.99,0,3.17,0.84,4.15,1.92v-1.68h3.65v9.96   c0,2.3-0.55,3.98-1.63,5.06c-1.2,1.2-3.05,1.73-5.54,1.73C299.29,111.14,297.33,110.66,295.69,109.8z M304.96,100.19v-0.05   c0-1.75-1.37-2.98-3.14-2.98s-3.12,1.22-3.12,2.98v0.05c0,1.78,1.34,2.98,3.12,2.98S304.96,101.95,304.96,100.19z"></path>	</g>	<g>		<path class="st1" d="M395.19,90.45h7.68c2.14,0,3.79,0.6,4.9,1.7c0.94,0.94,1.44,2.26,1.44,3.84v0.05c0,2.71-1.46,4.42-3.6,5.21   l4.1,6h-4.32l-3.6-5.38h-2.9v5.38h-3.7V90.45z M402.63,98.61c1.8,0,2.83-0.96,2.83-2.38v-0.05c0-1.58-1.1-2.4-2.9-2.4h-3.67v4.82   H402.63z"></path>		<path class="st1" d="M411.29,100.89v-0.05c0-3.67,2.62-6.7,6.36-6.7c4.3,0,6.26,3.34,6.26,6.98c0,0.29-0.02,0.62-0.05,0.96h-8.95   c0.36,1.66,1.51,2.52,3.14,2.52c1.22,0,2.11-0.38,3.12-1.32l2.09,1.85c-1.2,1.49-2.93,2.4-5.26,2.4   C414.15,107.54,411.29,104.83,411.29,100.89z M420.37,99.81c-0.22-1.63-1.18-2.74-2.71-2.74c-1.51,0-2.5,1.08-2.78,2.74H420.37z"></path>		<path class="st1" d="M425.62,105.55l1.56-2.4c1.39,1.01,2.86,1.54,4.06,1.54c1.06,0,1.54-0.38,1.54-0.96v-0.05   c0-0.79-1.25-1.06-2.66-1.49c-1.8-0.53-3.84-1.37-3.84-3.86v-0.05c0-2.62,2.11-4.08,4.7-4.08c1.63,0,3.41,0.55,4.8,1.49   l-1.39,2.52c-1.27-0.74-2.54-1.2-3.48-1.2c-0.89,0-1.34,0.38-1.34,0.89v0.05c0,0.72,1.22,1.06,2.62,1.54   c1.8,0.6,3.89,1.46,3.89,3.82v0.05c0,2.86-2.14,4.15-4.92,4.15C429.34,107.49,427.32,106.89,425.62,105.55z"></path>		<path class="st1" d="M438.05,100.89v-0.05c0-3.67,2.62-6.7,6.36-6.7c4.3,0,6.26,3.34,6.26,6.98c0,0.29-0.02,0.62-0.05,0.96h-8.95   c0.36,1.66,1.51,2.52,3.14,2.52c1.22,0,2.11-0.38,3.12-1.32l2.09,1.85c-1.2,1.49-2.93,2.4-5.26,2.4   C440.91,107.54,438.05,104.83,438.05,100.89z M447.12,99.81c-0.22-1.63-1.18-2.74-2.71-2.74c-1.51,0-2.5,1.08-2.78,2.74H447.12z"></path>		<path class="st1" d="M452.62,103.55v-0.05c0-2.81,2.14-4.1,5.18-4.1c1.3,0,2.23,0.22,3.14,0.53v-0.22c0-1.51-0.94-2.35-2.76-2.35   c-1.39,0-2.38,0.26-3.55,0.7l-0.91-2.78c1.42-0.62,2.81-1.03,4.99-1.03c1.99,0,3.43,0.53,4.34,1.44c0.96,0.96,1.39,2.38,1.39,4.1   v7.46h-3.53v-1.39c-0.89,0.98-2.11,1.63-3.89,1.63C454.61,107.49,452.62,106.1,452.62,103.55z M461,102.71v-0.65   c-0.62-0.29-1.44-0.48-2.33-0.48c-1.56,0-2.52,0.62-2.52,1.78v0.05c0,0.98,0.82,1.56,1.99,1.56   C459.84,104.97,461,104.03,461,102.71z"></path>		<path class="st1" d="M467.6,94.39h3.65v2.59c0.74-1.78,1.94-2.93,4.1-2.83v3.82h-0.19c-2.42,0-3.91,1.46-3.91,4.54v4.75h-3.65   V94.39z"></path>		<path class="st1" d="M476.64,100.89v-0.05c0-3.67,2.81-6.7,6.74-6.7c2.42,0,3.94,0.82,5.14,2.16l-2.23,2.4   c-0.82-0.86-1.63-1.42-2.93-1.42c-1.82,0-3.12,1.61-3.12,3.5v0.05c0,1.97,1.27,3.55,3.26,3.55c1.22,0,2.06-0.53,2.95-1.37   l2.14,2.16c-1.25,1.37-2.69,2.35-5.26,2.35C479.48,107.54,476.64,104.56,476.64,100.89z"></path>		<path class="st1" d="M490.97,89.73h3.65v6.48c0.84-1.08,1.92-2.06,3.77-2.06c2.76,0,4.37,1.82,4.37,4.78v8.33h-3.65v-7.18   c0-1.73-0.82-2.62-2.21-2.62s-2.28,0.89-2.28,2.62v7.18h-3.65V89.73z"></path>		<path class="st1" d="M522.87,105.62c-1.37,1.13-2.98,1.87-4.92,1.87c-3.22,0-5.64-1.87-5.64-4.85v-0.05   c0-2.14,1.15-3.65,3.26-4.61c-0.82-1.15-1.18-2.21-1.18-3.36v-0.05c0-2.3,1.85-4.42,5.09-4.42c2.86,0,4.73,1.87,4.73,4.22v0.05   c0,2.26-1.44,3.58-3.53,4.39l2.23,2.23c0.55-0.86,1.1-1.85,1.63-2.88l2.71,1.49c-0.65,1.18-1.37,2.42-2.21,3.55l2.47,2.47   l-2.71,1.9L522.87,105.62z M520.8,103.51l-3.22-3.26c-1.1,0.58-1.56,1.39-1.56,2.21v0.05c0,1.18,0.98,1.97,2.35,1.97   C519.22,104.47,520.04,104.11,520.8,103.51z M521,94.65V94.6c0-0.96-0.65-1.56-1.58-1.56c-0.98,0-1.63,0.7-1.63,1.7v0.05   c0,0.74,0.29,1.3,0.98,2.09C520.23,96.33,521,95.71,521,94.65z"></path>		<path class="st1" d="M543.17,90.33h3.41l7.2,16.92h-3.86l-1.54-3.77h-7.11l-1.54,3.77h-3.77L543.17,90.33z M547.06,100.22   l-2.23-5.45l-2.23,5.45H547.06z"></path>		<path class="st1" d="M555.99,94.39h3.65v1.82c0.84-1.08,1.92-2.06,3.77-2.06c2.76,0,4.37,1.82,4.37,4.78v8.33h-3.65v-7.18   c0-1.73-0.82-2.62-2.21-2.62c-1.39,0-2.28,0.89-2.28,2.62v7.18h-3.65V94.39z"></path>		<path class="st1" d="M570.17,103.55v-0.05c0-2.81,2.14-4.1,5.18-4.1c1.3,0,2.23,0.22,3.14,0.53v-0.22c0-1.51-0.94-2.35-2.76-2.35   c-1.39,0-2.38,0.26-3.55,0.7l-0.91-2.78c1.42-0.62,2.81-1.03,4.99-1.03c1.99,0,3.43,0.53,4.34,1.44c0.96,0.96,1.39,2.38,1.39,4.1   v7.46h-3.53v-1.39c-0.89,0.98-2.11,1.63-3.89,1.63C572.16,107.49,570.17,106.1,570.17,103.55z M578.55,102.71v-0.65   c-0.62-0.29-1.44-0.48-2.33-0.48c-1.56,0-2.52,0.62-2.52,1.78v0.05c0,0.98,0.82,1.56,1.99,1.56   C577.4,104.97,578.55,104.03,578.55,102.71z"></path>		<path class="st1" d="M585.31,89.73h3.65v17.52h-3.65V89.73z"></path>		<path class="st1" d="M592.23,110.28l1.22-2.64c0.48,0.29,1.08,0.5,1.56,0.5c0.62,0,0.96-0.19,1.27-0.84l-5.04-12.91h3.86   l2.93,8.76l2.81-8.76h3.79l-4.94,13.18c-0.98,2.62-2.04,3.6-4.22,3.6C594.15,111.16,593.16,110.83,592.23,110.28z"></path>		<path class="st1" d="M605.31,105.55l1.56-2.4c1.39,1.01,2.86,1.54,4.06,1.54c1.06,0,1.54-0.38,1.54-0.96v-0.05   c0-0.79-1.25-1.06-2.67-1.49c-1.8-0.53-3.84-1.37-3.84-3.86v-0.05c0-2.62,2.11-4.08,4.7-4.08c1.63,0,3.41,0.55,4.8,1.49   l-1.39,2.52c-1.27-0.74-2.54-1.2-3.48-1.2c-0.89,0-1.34,0.38-1.34,0.89v0.05c0,0.72,1.22,1.06,2.62,1.54   c1.8,0.6,3.89,1.46,3.89,3.82v0.05c0,2.86-2.14,4.15-4.92,4.15C609.03,107.49,607.01,106.89,605.31,105.55z"></path>		<path class="st1" d="M618.43,89.73h3.84v3.24h-3.84V89.73z M618.53,94.39h3.65v12.87h-3.65V94.39z"></path>		<path class="st1" d="M624.6,105.55l1.56-2.4c1.39,1.01,2.86,1.54,4.06,1.54c1.06,0,1.54-0.38,1.54-0.96v-0.05   c0-0.79-1.25-1.06-2.66-1.49c-1.8-0.53-3.84-1.37-3.84-3.86v-0.05c0-2.62,2.11-4.08,4.71-4.08c1.63,0,3.41,0.55,4.8,1.49   l-1.39,2.52c-1.27-0.74-2.54-1.2-3.48-1.2c-0.89,0-1.34,0.38-1.34,0.89v0.05c0,0.72,1.22,1.06,2.62,1.54   c1.8,0.6,3.89,1.46,3.89,3.82v0.05c0,2.86-2.14,4.15-4.92,4.15C628.32,107.49,626.31,106.89,624.6,105.55z"></path>	</g>	<g>		<path class="st1" d="M781.85,90.45h6.55c5.28,0,8.93,3.62,8.93,8.35v0.05c0,4.73-3.65,8.4-8.93,8.4h-6.55V90.45z M788.4,103.91   c3.02,0,5.06-2.04,5.06-5.02v-0.05c0-2.98-2.04-5.06-5.06-5.06h-2.86v10.13H788.4z"></path>		<path class="st1" d="M799.61,100.89v-0.05c0-3.67,2.62-6.7,6.36-6.7c4.3,0,6.26,3.34,6.26,6.98c0,0.29-0.02,0.62-0.05,0.96h-8.95   c0.36,1.66,1.51,2.52,3.14,2.52c1.22,0,2.11-0.38,3.12-1.32l2.09,1.85c-1.2,1.49-2.93,2.4-5.26,2.4   C802.47,107.54,799.61,104.83,799.61,100.89z M808.68,99.81c-0.22-1.63-1.18-2.74-2.71-2.74c-1.51,0-2.5,1.08-2.78,2.74H808.68z"></path>		<path class="st1" d="M813.94,105.55l1.56-2.4c1.39,1.01,2.86,1.54,4.06,1.54c1.06,0,1.54-0.38,1.54-0.96v-0.05   c0-0.79-1.25-1.06-2.67-1.49c-1.8-0.53-3.84-1.37-3.84-3.86v-0.05c0-2.62,2.11-4.08,4.71-4.08c1.63,0,3.41,0.55,4.8,1.49   l-1.39,2.52c-1.27-0.74-2.54-1.2-3.48-1.2c-0.89,0-1.34,0.38-1.34,0.89v0.05c0,0.72,1.22,1.06,2.62,1.54   c1.8,0.6,3.89,1.46,3.89,3.82v0.05c0,2.86-2.14,4.15-4.92,4.15C817.66,107.49,815.64,106.89,813.94,105.55z"></path>		<path class="st1" d="M827.07,89.73h3.84v3.24h-3.84V89.73z M827.16,94.39h3.65v12.87h-3.65V94.39z"></path>		<path class="st1" d="M834.31,109.8l1.25-2.74c1.32,0.74,2.64,1.18,4.34,1.18c2.5,0,3.67-1.2,3.67-3.5v-0.62   c-1.08,1.3-2.26,2.09-4.2,2.09c-3,0-5.71-2.18-5.71-6v-0.05c0-3.84,2.76-6,5.71-6c1.99,0,3.17,0.84,4.15,1.92v-1.68h3.65v9.96   c0,2.3-0.55,3.98-1.63,5.06c-1.2,1.2-3.05,1.73-5.54,1.73C837.91,111.14,835.95,110.66,834.31,109.8z M843.58,100.19v-0.05   c0-1.75-1.37-2.98-3.14-2.98c-1.78,0-3.12,1.22-3.12,2.98v0.05c0,1.78,1.34,2.98,3.12,2.98   C842.21,103.17,843.58,101.95,843.58,100.19z"></path>		<path class="st1" d="M850.44,94.39h3.65v1.82c0.84-1.08,1.92-2.06,3.77-2.06c2.76,0,4.37,1.82,4.37,4.78v8.33h-3.65v-7.18   c0-1.73-0.82-2.62-2.21-2.62c-1.39,0-2.28,0.89-2.28,2.62v7.18h-3.65V94.39z"></path>	</g>	<g>		<path class="st1" d="M64.51,608.65l2.18-2.62c1.51,1.25,3.1,2.04,5.02,2.04c1.51,0,2.42-0.6,2.42-1.58v-0.05   c0-0.94-0.58-1.42-3.38-2.14c-3.38-0.86-5.57-1.8-5.57-5.14v-0.05c0-3.05,2.45-5.06,5.88-5.06c2.45,0,4.54,0.77,6.24,2.14   l-1.92,2.78c-1.49-1.03-2.95-1.66-4.37-1.66s-2.16,0.65-2.16,1.46v0.05c0,1.1,0.72,1.46,3.62,2.21c3.41,0.89,5.33,2.11,5.33,5.04   v0.05c0,3.34-2.54,5.21-6.17,5.21C69.09,611.34,66.53,610.45,64.51,608.65z"></path>		<path class="st1" d="M80.54,606.56v-8.33h3.65v7.18c0,1.73,0.82,2.62,2.21,2.62s2.28-0.89,2.28-2.62v-7.18h3.65v12.87h-3.65v-1.82   c-0.84,1.08-1.92,2.06-3.77,2.06C82.15,611.34,80.54,609.51,80.54,606.56z"></path>		<path class="st1" d="M95.59,598.23h3.65v1.85c0.89-1.2,2.11-2.09,4.01-2.09c3,0,5.86,2.35,5.86,6.65v0.05   c0,4.3-2.81,6.65-5.86,6.65c-1.94,0-3.14-0.89-4.01-1.92v5.52h-3.65V598.23z M105.45,604.69v-0.05c0-2.14-1.44-3.55-3.14-3.55   s-3.12,1.42-3.12,3.55v0.05c0,2.14,1.42,3.55,3.12,3.55S105.45,606.85,105.45,604.69z"></path>		<path class="st1" d="M111.79,598.23h3.65v1.85c0.89-1.2,2.11-2.09,4.01-2.09c3,0,5.86,2.35,5.86,6.65v0.05   c0,4.3-2.81,6.65-5.86,6.65c-1.94,0-3.14-0.89-4.01-1.92v5.52h-3.65V598.23z M121.65,604.69v-0.05c0-2.14-1.44-3.55-3.14-3.55   s-3.12,1.42-3.12,3.55v0.05c0,2.14,1.42,3.55,3.12,3.55S121.65,606.85,121.65,604.69z"></path>		<path class="st1" d="M127.37,604.74v-0.05c0-3.7,2.98-6.7,6.98-6.7c3.98,0,6.94,2.95,6.94,6.65v0.05c0,3.7-2.98,6.7-6.98,6.7   C130.32,611.38,127.37,608.43,127.37,604.74z M137.69,604.74v-0.05c0-1.9-1.37-3.55-3.38-3.55c-2.09,0-3.34,1.61-3.34,3.5v0.05   c0,1.9,1.37,3.55,3.38,3.55C136.44,608.24,137.69,606.63,137.69,604.74z"></path>		<path class="st1" d="M143.92,598.23h3.65v2.59c0.74-1.78,1.94-2.93,4.1-2.83v3.82h-0.19c-2.42,0-3.91,1.46-3.91,4.54v4.75h-3.65   V598.23z"></path>		<path class="st1" d="M154.56,607.45v-6.1h-1.54v-3.12h1.54v-3.29h3.65v3.29h3.02v3.12h-3.02v5.5c0,0.84,0.36,1.25,1.18,1.25   c0.67,0,1.27-0.17,1.8-0.46v2.93c-0.77,0.46-1.66,0.74-2.88,0.74C156.07,611.31,154.56,610.42,154.56,607.45z"></path>		<path class="st1" d="M180.86,609.46c-1.37,1.13-2.98,1.87-4.92,1.87c-3.22,0-5.64-1.87-5.64-4.85v-0.05   c0-2.14,1.15-3.65,3.26-4.61c-0.82-1.15-1.18-2.21-1.18-3.36v-0.05c0-2.3,1.85-4.42,5.09-4.42c2.86,0,4.73,1.87,4.73,4.22v0.05   c0,2.26-1.44,3.58-3.53,4.39l2.23,2.23c0.55-0.86,1.1-1.85,1.63-2.88l2.71,1.49c-0.65,1.18-1.37,2.42-2.21,3.55l2.47,2.47   l-2.71,1.9L180.86,609.46z M178.8,607.35l-3.22-3.26c-1.1,0.58-1.56,1.39-1.56,2.21v0.05c0,1.18,0.98,1.97,2.35,1.97   C177.21,608.31,178.03,607.95,178.8,607.35z M178.99,598.5v-0.05c0-0.96-0.65-1.56-1.58-1.56c-0.98,0-1.63,0.7-1.63,1.7v0.05   c0,0.74,0.29,1.3,0.98,2.09C178.22,600.17,178.99,599.55,178.99,598.5z"></path>		<path class="st1" d="M195.4,594.29h3.98l4.42,7.1l4.42-7.1h3.98v16.8h-3.67v-10.97l-4.73,7.18h-0.1l-4.68-7.1v10.9h-3.62V594.29z"></path>		<path class="st1" d="M215.08,607.4v-0.05c0-2.81,2.14-4.1,5.18-4.1c1.3,0,2.23,0.22,3.14,0.53v-0.22c0-1.51-0.94-2.35-2.76-2.35   c-1.39,0-2.38,0.26-3.55,0.7l-0.91-2.78c1.42-0.62,2.81-1.03,4.99-1.03c1.99,0,3.43,0.53,4.34,1.44c0.96,0.96,1.39,2.38,1.39,4.1   v7.46h-3.53v-1.39c-0.89,0.98-2.11,1.63-3.89,1.63C217.08,611.34,215.08,609.94,215.08,607.4z M223.46,606.56v-0.65   c-0.62-0.29-1.44-0.48-2.33-0.48c-1.56,0-2.52,0.62-2.52,1.78v0.05c0,0.98,0.82,1.56,1.99,1.56   C222.31,608.82,223.46,607.88,223.46,606.56z"></path>		<path class="st1" d="M230.13,593.57h3.84v3.24h-3.84V593.57z M230.23,598.23h3.65v12.87h-3.65V598.23z"></path>		<path class="st1" d="M237.31,598.23h3.65v1.82c0.84-1.08,1.92-2.06,3.77-2.06c2.76,0,4.37,1.82,4.37,4.78v8.33h-3.65v-7.18   c0-1.73-0.82-2.62-2.21-2.62s-2.28,0.89-2.28,2.62v7.18h-3.65V598.23z"></path>		<path class="st1" d="M252.86,607.45v-6.1h-1.54v-3.12h1.54v-3.29h3.65v3.29h3.02v3.12h-3.02v5.5c0,0.84,0.36,1.25,1.18,1.25   c0.67,0,1.27-0.17,1.8-0.46v2.93c-0.77,0.46-1.66,0.74-2.88,0.74C254.37,611.31,252.86,610.42,252.86,607.45z"></path>		<path class="st1" d="M261.24,604.74v-0.05c0-3.67,2.62-6.7,6.36-6.7c4.3,0,6.26,3.34,6.26,6.98c0,0.29-0.02,0.62-0.05,0.96h-8.95   c0.36,1.66,1.51,2.52,3.14,2.52c1.22,0,2.11-0.38,3.12-1.32l2.09,1.85c-1.2,1.49-2.93,2.4-5.26,2.4   C264.09,611.38,261.24,608.67,261.24,604.74z M270.31,603.66c-0.22-1.63-1.18-2.74-2.71-2.74c-1.51,0-2.5,1.08-2.78,2.74H270.31z"></path>		<path class="st1" d="M276.57,598.23h3.65v1.82c0.84-1.08,1.92-2.06,3.77-2.06c2.76,0,4.37,1.82,4.37,4.78v8.33h-3.65v-7.18   c0-1.73-0.82-2.62-2.21-2.62s-2.28,0.89-2.28,2.62v7.18h-3.65V598.23z"></path>		<path class="st1" d="M290.75,607.4v-0.05c0-2.81,2.14-4.1,5.18-4.1c1.3,0,2.23,0.22,3.14,0.53v-0.22c0-1.51-0.94-2.35-2.76-2.35   c-1.39,0-2.38,0.26-3.55,0.7l-0.91-2.78c1.42-0.62,2.81-1.03,4.99-1.03c1.99,0,3.43,0.53,4.34,1.44c0.96,0.96,1.39,2.38,1.39,4.1   v7.46h-3.53v-1.39c-0.89,0.98-2.11,1.63-3.89,1.63C292.75,611.34,290.75,609.94,290.75,607.4z M299.13,606.56v-0.65   c-0.62-0.29-1.44-0.48-2.33-0.48c-1.56,0-2.52,0.62-2.52,1.78v0.05c0,0.98,0.82,1.56,1.99,1.56   C297.98,608.82,299.13,607.88,299.13,606.56z"></path>		<path class="st1" d="M305.73,598.23h3.65v1.82c0.84-1.08,1.92-2.06,3.77-2.06c2.76,0,4.37,1.82,4.37,4.78v8.33h-3.65v-7.18   c0-1.73-0.82-2.62-2.21-2.62s-2.28,0.89-2.28,2.62v7.18h-3.65V598.23z"></path>		<path class="st1" d="M320.06,604.74v-0.05c0-3.67,2.81-6.7,6.74-6.7c2.42,0,3.94,0.82,5.14,2.16l-2.23,2.4   c-0.82-0.86-1.63-1.42-2.93-1.42c-1.82,0-3.12,1.61-3.12,3.5v0.05c0,1.97,1.27,3.55,3.26,3.55c1.22,0,2.06-0.53,2.95-1.37   l2.14,2.16c-1.25,1.37-2.69,2.35-5.26,2.35C322.89,611.38,320.06,608.41,320.06,604.74z"></path>		<path class="st1" d="M333.4,604.74v-0.05c0-3.67,2.62-6.7,6.36-6.7c4.3,0,6.26,3.34,6.26,6.98c0,0.29-0.02,0.62-0.05,0.96h-8.95   c0.36,1.66,1.51,2.52,3.14,2.52c1.22,0,2.11-0.38,3.12-1.32l2.09,1.85c-1.2,1.49-2.93,2.4-5.26,2.4   C336.26,611.38,333.4,608.67,333.4,604.74z M342.48,603.66c-0.22-1.63-1.18-2.74-2.71-2.74c-1.51,0-2.5,1.08-2.78,2.74H342.48z"></path>	</g>	<g>		<path class="st1" d="M476.57,597.7h-5.11v-3.41h13.92v3.41h-5.11v13.39h-3.7V597.7z"></path>		<path class="st1" d="M484.68,604.74v-0.05c0-3.67,2.62-6.7,6.36-6.7c4.3,0,6.26,3.34,6.26,6.98c0,0.29-0.02,0.62-0.05,0.96h-8.95   c0.36,1.66,1.51,2.52,3.14,2.52c1.22,0,2.11-0.38,3.12-1.32l2.09,1.85c-1.2,1.49-2.93,2.4-5.26,2.4   C487.54,611.38,484.68,608.67,484.68,604.74z M493.76,603.66c-0.22-1.63-1.18-2.74-2.71-2.74c-1.51,0-2.5,1.08-2.78,2.74H493.76z"></path>		<path class="st1" d="M499.01,609.39l1.56-2.4c1.39,1.01,2.86,1.54,4.06,1.54c1.06,0,1.54-0.38,1.54-0.96v-0.05   c0-0.79-1.25-1.06-2.66-1.49c-1.8-0.53-3.84-1.37-3.84-3.86v-0.05c0-2.62,2.11-4.08,4.7-4.08c1.63,0,3.41,0.55,4.8,1.49   l-1.39,2.52c-1.27-0.74-2.54-1.2-3.48-1.2c-0.89,0-1.34,0.38-1.34,0.89v0.05c0,0.72,1.22,1.06,2.62,1.54   c1.8,0.6,3.89,1.46,3.89,3.82v0.05c0,2.86-2.14,4.15-4.92,4.15C502.73,611.34,500.72,610.74,499.01,609.39z"></path>		<path class="st1" d="M512.43,607.45v-6.1h-1.54v-3.12h1.54v-3.29h3.65v3.29h3.02v3.12h-3.02v5.5c0,0.84,0.36,1.25,1.18,1.25   c0.67,0,1.27-0.17,1.8-0.46v2.93c-0.77,0.46-1.66,0.74-2.88,0.74C513.94,611.31,512.43,610.42,512.43,607.45z"></path>		<path class="st1" d="M521.86,593.57h3.84v3.24h-3.84V593.57z M521.96,598.23h3.65v12.87h-3.65V598.23z"></path>		<path class="st1" d="M529.03,598.23h3.65v1.82c0.84-1.08,1.92-2.06,3.77-2.06c2.76,0,4.37,1.82,4.37,4.78v8.33h-3.65v-7.18   c0-1.73-0.82-2.62-2.21-2.62c-1.39,0-2.28,0.89-2.28,2.62v7.18h-3.65V598.23z"></path>		<path class="st1" d="M544.06,613.64l1.25-2.74c1.32,0.74,2.64,1.18,4.34,1.18c2.5,0,3.67-1.2,3.67-3.5v-0.62   c-1.08,1.3-2.26,2.09-4.2,2.09c-3,0-5.71-2.18-5.71-6v-0.05c0-3.84,2.76-6,5.71-6c1.99,0,3.17,0.84,4.15,1.92v-1.68h3.65v9.96   c0,2.3-0.55,3.98-1.63,5.06c-1.2,1.2-3.05,1.73-5.54,1.73C547.66,614.98,545.69,614.5,544.06,613.64z M553.32,604.04v-0.05   c0-1.75-1.37-2.98-3.14-2.98s-3.12,1.22-3.12,2.98v0.05c0,1.78,1.34,2.98,3.12,2.98S553.32,605.79,553.32,604.04z"></path>	</g>	<g>		<path class="st1" d="M742.28,594.29h6.55c5.28,0,8.93,3.62,8.93,8.35v0.05c0,4.73-3.65,8.4-8.93,8.4h-6.55V594.29z M748.83,607.76   c3.02,0,5.06-2.04,5.06-5.02v-0.05c0-2.98-2.04-5.06-5.06-5.06h-2.86v10.13H748.83z"></path>		<path class="st1" d="M760.04,604.74v-0.05c0-3.67,2.62-6.7,6.36-6.7c4.3,0,6.26,3.34,6.26,6.98c0,0.29-0.02,0.62-0.05,0.96h-8.95   c0.36,1.66,1.51,2.52,3.14,2.52c1.22,0,2.11-0.38,3.12-1.32l2.09,1.85c-1.2,1.49-2.93,2.4-5.26,2.4   C762.89,611.38,760.04,608.67,760.04,604.74z M769.11,603.66c-0.22-1.63-1.18-2.74-2.71-2.74c-1.51,0-2.5,1.08-2.78,2.74H769.11z"></path>		<path class="st1" d="M773.62,598.23h3.86l2.88,8.62l2.9-8.62h3.79L782,611.19h-3.31L773.62,598.23z"></path>		<path class="st1" d="M787.83,604.74v-0.05c0-3.67,2.62-6.7,6.36-6.7c4.3,0,6.26,3.34,6.26,6.98c0,0.29-0.02,0.62-0.05,0.96h-8.95   c0.36,1.66,1.51,2.52,3.14,2.52c1.22,0,2.11-0.38,3.12-1.32l2.09,1.85c-1.2,1.49-2.93,2.4-5.26,2.4   C790.68,611.38,787.83,608.67,787.83,604.74z M796.9,603.66c-0.22-1.63-1.18-2.74-2.71-2.74c-1.51,0-2.5,1.08-2.78,2.74H796.9z"></path>		<path class="st1" d="M803.33,593.57h3.65v17.52h-3.65V593.57z"></path>		<path class="st1" d="M809.79,604.74v-0.05c0-3.7,2.98-6.7,6.98-6.7c3.98,0,6.94,2.95,6.94,6.65v0.05c0,3.7-2.98,6.7-6.98,6.7   C812.74,611.38,809.79,608.43,809.79,604.74z M820.11,604.74v-0.05c0-1.9-1.37-3.55-3.38-3.55c-2.09,0-3.34,1.61-3.34,3.5v0.05   c0,1.9,1.37,3.55,3.38,3.55C818.86,608.24,820.11,606.63,820.11,604.74z"></path>		<path class="st1" d="M826.35,598.23h3.65v1.85c0.89-1.2,2.11-2.09,4.01-2.09c3,0,5.86,2.35,5.86,6.65v0.05   c0,4.3-2.81,6.65-5.86,6.65c-1.94,0-3.14-0.89-4.01-1.92v5.52h-3.65V598.23z M836.21,604.69v-0.05c0-2.14-1.44-3.55-3.14-3.55   s-3.12,1.42-3.12,3.55v0.05c0,2.14,1.42,3.55,3.12,3.55S836.21,606.85,836.21,604.69z"></path>		<path class="st1" d="M842.55,598.23h3.65v1.82c0.84-1.08,1.95-2.06,3.79-2.06c1.68,0,2.95,0.74,3.62,2.04   c1.13-1.32,2.47-2.04,4.22-2.04c2.71,0,4.34,1.63,4.34,4.73v8.38h-3.65v-7.18c0-1.73-0.77-2.62-2.14-2.62   c-1.37,0-2.21,0.89-2.21,2.62v7.18h-3.65v-7.18c0-1.73-0.77-2.62-2.14-2.62s-2.21,0.89-2.21,2.62v7.18h-3.65V598.23z"></path>		<path class="st1" d="M864.72,604.74v-0.05c0-3.67,2.62-6.7,6.36-6.7c4.3,0,6.26,3.34,6.26,6.98c0,0.29-0.02,0.62-0.05,0.96h-8.95   c0.36,1.66,1.51,2.52,3.14,2.52c1.22,0,2.11-0.38,3.12-1.32l2.09,1.85c-1.2,1.49-2.93,2.4-5.26,2.4   C867.58,611.38,864.72,608.67,864.72,604.74z M873.8,603.66c-0.22-1.63-1.18-2.74-2.71-2.74c-1.51,0-2.5,1.08-2.78,2.74H873.8z"></path>		<path class="st1" d="M880.06,598.23h3.65v1.82c0.84-1.08,1.92-2.06,3.77-2.06c2.76,0,4.37,1.82,4.37,4.78v8.33h-3.65v-7.18   c0-1.73-0.82-2.62-2.21-2.62c-1.39,0-2.28,0.89-2.28,2.62v7.18h-3.65V598.23z"></path>		<path class="st1" d="M895.61,607.45v-6.1h-1.54v-3.12h1.54v-3.29h3.65v3.29h3.02v3.12h-3.02v5.5c0,0.84,0.36,1.25,1.18,1.25   c0.67,0,1.27-0.17,1.8-0.46v2.93c-0.77,0.46-1.66,0.74-2.88,0.74C897.12,611.31,895.61,610.42,895.61,607.45z"></path>	</g>	<g>		<path class="st2" d="M501.96,198.68l11.57-9.84c4.61-3.89,6.29-6.05,6.29-9.07c0-3.31-2.35-5.23-5.42-5.23   c-3.07,0-5.18,1.68-7.78,5.04l-4.18-3.26c3.22-4.51,6.38-7.06,12.39-7.06c6.58,0,11.09,4.03,11.09,10.03v0.1   c0,5.28-2.78,8.16-8.74,13.01l-6.91,5.76h15.99v5.18h-24.29V198.68z"></path>	</g>	<g>		<path class="st2" d="M808.33,198.01l4.13-3.84c2.4,2.83,5.09,4.42,8.83,4.42c3.31,0,5.81-2.02,5.81-5.09v-0.1   c0-3.31-3.02-5.18-7.73-5.18h-2.74l-0.96-3.7l9.07-9.65H810.2v-5.14h22.23v4.42l-9.36,9.6c5.09,0.67,9.89,3.22,9.89,9.46v0.1   c0,6.19-4.8,10.61-11.76,10.61C815.34,203.91,811.16,201.46,808.33,198.01z"></path>	</g>	<g>		<path class="st2" d="M195.46,522.34c-2.54-2.59-4.08-6.1-4.08-12.87v-0.1c0-10.27,4.9-18.29,14.4-18.29   c4.37,0,7.34,1.39,10.27,3.74l-3.17,4.56c-2.35-1.82-4.37-2.93-7.3-2.93c-4.99,0-7.78,4.51-8.06,10.66   c1.78-1.73,4.08-3.36,8.02-3.36c6.53,0,11.76,3.84,11.76,10.56v0.1c0,6.67-5.42,11.43-12.48,11.43   C200.69,525.85,197.72,524.55,195.46,522.34z M211.4,514.66v-0.1c0-3.36-2.69-5.86-6.86-5.86c-4.18,0-6.82,2.69-6.82,5.9v0.1   c0,3.41,2.74,6.05,6.96,6.05C208.86,520.76,211.4,518.12,211.4,514.66z"></path>	</g>	<g>		<path class="st2" d="M501.87,520.71l3.65-4.27c2.69,2.5,5.52,4.03,8.64,4.03c4.03,0,6.67-2.3,6.67-5.81v-0.1   c0-3.41-2.88-5.57-6.96-5.57c-2.4,0-4.46,0.67-6.19,1.49l-3.55-2.35l0.96-16.47h20.07v5.23h-14.98l-0.53,7.87   c1.58-0.58,3.07-0.96,5.33-0.96c6.53,0,11.67,3.46,11.67,10.56v0.1c0,6.86-4.99,11.38-12.43,11.38   C509.07,525.85,505.03,523.78,501.87,520.71z"></path>	</g>	<g>		<path class="st2" d="M826.05,517.73H809.1l-1.1-4.22l18.67-22.08h5.04v21.46h4.8v4.85h-4.8v7.54h-5.66V517.73z M826.05,512.89   v-13.3l-11.04,13.3H826.05z"></path>	</g></g></svg>